<svg width="24" height="24" viewBox="0 0 24 24" fill="none" xmlns="http://www.w3.org/2000/svg">
<g id="Icon/discord logo">
<path id="Exclude" fill-rule="evenodd" clip-rule="evenodd" d="M18.2089 7.93815C18.3526 8.22893 18.6666 8.94876 19.1552 10.5034C19.6459 12.0647 19.9864 15.5872 20 15.7295C19.8241 16.0392 18.7019 17.9651 15.2639 17.9651L14.3459 16.6263C13.582 16.8249 12.7939 16.9253 11.9983 16.9253C11.2043 16.9253 10.4178 16.8253 9.65539 16.6275L8.73169 17.9651C5.36076 17.9651 4.10808 15.9713 4 15.7349C4.00849 15.6154 4.22592 12.6274 4.83814 10.5135C5.28456 8.97251 5.58631 8.35063 5.7277 8.05925L5.7277 8.05924L5.7277 8.05923C5.74092 8.032 5.75273 8.00766 5.76313 7.98572C5.96613 7.55746 6.20774 7.16743 6.20774 7.16743C6.24876 7.11736 7.26585 5.90024 9.71712 5L10.041 5.88189C8.87487 6.31019 8.04753 6.83272 7.59256 7.17028C8.95097 6.76463 10.567 6.51619 11.9982 6.51619C13.4278 6.51619 15.0418 6.76391 16.3992 7.16869C15.9078 6.79911 15.1145 6.30756 13.9554 5.88189L14.2793 5C16.7306 5.90024 17.7477 7.11736 17.7887 7.16743C17.8004 7.18779 18.0933 7.70001 18.2088 7.93806L18.2089 7.93815ZM8.88512 11.4053H9.82464V12.9711H8.88512V11.4053ZM15.1117 11.4053H14.1722V12.9711H15.1117V11.4053Z" fill="rgba(51, 51, 51, 0.7)" fill-opacity="1"/>
</g>
</svg>
