<svg width="24" height="24" viewBox="0 0 24 24" fill="none" xmlns="http://www.w3.org/2000/svg">
<g id="Icon/medium logo">
<path id="Vector" d="M12.8711 12.0001C12.8711 14.7615 10.6613 17 7.93561 17C5.20991 17 3 14.761 3 12.0001C3 9.23921 5.20974 7 7.93561 7C10.6615 7 12.8711 9.2387 12.8711 12.0001ZM18.2854 12.0001C18.2854 14.5993 17.1805 16.7073 15.8176 16.7073C14.4547 16.7073 13.3498 14.5993 13.3498 12.0001C13.3498 9.40084 14.4545 7.29289 15.8174 7.29289C17.1804 7.29289 18.2852 9.40016 18.2852 12.0001H18.2854ZM20.5 12.0001C20.5 14.3284 20.1115 16.217 19.6321 16.217C19.1527 16.217 18.7643 14.3289 18.7643 12.0001C18.7643 9.67129 19.1528 7.78318 19.6321 7.78318C20.1113 7.78318 20.5 9.67112 20.5 12.0001Z" fill="rgba(51, 51, 51, 0.7)" fill-opacity="1"/>
</g>
</svg>
