<svg width="24" height="24" viewBox="0 0 24 24" fill="none" xmlns="http://www.w3.org/2000/svg">
<g id="Icon/telegram logo">
<path id="XMLID 497" d="M3.78261 11.213L7.46933 12.5958L8.89632 17.2078C8.98763 17.5032 9.34704 17.6124 9.5856 17.4164L11.6406 15.7327C11.8561 15.5563 12.1629 15.5475 12.388 15.7118L16.0946 18.4162C16.3498 18.6026 16.7113 18.4621 16.7753 18.1522L19.4906 5.02631C19.5604 4.68778 19.2295 4.40537 18.9087 4.53004L3.77829 10.3959C3.4049 10.5407 3.40815 11.0719 3.78261 11.213ZM8.66635 11.8597L15.8716 7.39988C16.0011 7.31996 16.1343 7.49593 16.0231 7.59959L10.0767 13.1546C9.86768 13.3501 9.73286 13.6118 9.69467 13.8958L9.49211 15.4044C9.46528 15.6058 9.18373 15.6258 9.12843 15.4309L8.34939 12.6799C8.26016 12.3661 8.39019 12.031 8.66635 11.8597Z" fill="rgba(51, 51, 51, 0.7)" fill-opacity="1"/>
</g>
</svg>
