<svg width="83" height="24" viewBox="0 0 83 24" fill="currentColor" xmlns="http://www.w3.org/2000/svg">
<g id="Icon/LOGO">
<path id="Vector" fill-rule="evenodd" clip-rule="evenodd" d="M59.5019 0.0876042L70.134 4.8077C70.392 4.92432 70.691 4.92432 70.9521 4.8077L81.5842 0.0876042C82.2497 -0.206855 83 0.277107 83 1.00014V4.75231C83 5.14589 82.7686 5.5045 82.4049 5.66484L70.9521 10.7494C70.6941 10.866 70.3951 10.866 70.134 10.7494L58.6812 5.66484C58.3204 5.5045 58.0861 5.14589 58.0861 4.75231V1.00014C58.0861 0.277107 58.8363 -0.206855 59.5019 0.0876042ZM11.9045 23.9971C19.2536 23.9971 23.9936 18.5977 23.9936 11.3266C23.9936 4.63277 19.1099 0.0613551 11.9426 0.0613551H1.27517C0.571626 0.0613551 0 0.629866 0 1.32957V22.7289C0 23.4286 0.571626 23.9971 1.27517 23.9971H11.9045ZM18.3096 11.5044C18.3096 16.0758 15.343 19.172 10.2043 19.172H6.48429C5.78076 19.172 5.20913 18.6035 5.20913 17.9038V6.40243C5.20913 5.70274 5.78076 5.13422 6.48429 5.13422H10.2394C15.343 5.13422 18.3096 7.32953 18.3096 11.5044ZM43.945 5.17212H52.2467L52.2378 5.17502C52.7451 5.17502 53.1555 4.76688 53.1555 4.2625V0.973886C53.1555 0.469517 52.7451 0.0613551 52.2378 0.0613551H28.593C28.086 0.0613551 27.6755 0.469517 27.6755 0.973886V4.25959C27.6755 4.76395 28.086 5.17212 28.593 5.17212H36.895C37.402 5.17212 37.8125 5.58029 37.8125 6.08465V23.0875C37.8125 23.5918 38.2227 24 38.7299 24H42.1098C42.6171 24 43.0273 23.5918 43.0273 23.0875V6.08465C43.0273 5.58029 43.4378 5.17212 43.945 5.17212ZM58.0861 19.5802V22.9971C58.0861 23.7201 58.8363 24.204 59.5019 23.9096L70.134 19.1896C70.3951 19.0729 70.6941 19.0729 70.9521 19.1896L81.5842 23.9096C82.2497 24.204 83 23.7201 83 22.9971V19.5802C83 19.1866 82.7657 18.828 82.4049 18.6677L70.9521 13.5832C70.691 13.4665 70.392 13.4665 70.134 13.5832L58.6812 18.6677C58.3175 18.828 58.0861 19.1866 58.0861 19.5802Z" fill="currentColor"/>
</g>
</svg>
